# xmcd
#
# Track frame offsets: 
#        150
#        15661
#        33912
#        41256
#        61587
#        75115
#        97617
#        115550
#        136987
#        157287
#        173437
#        188202
#        209966
#        220214
#        231819
#        252876
#        271830
#        289908
#
# Disc length: 4070 seconds
#
# Revision: 0
# Processed by: cddbd v1.5.2PL0 Copyright (c) Steve Scherf et al.
# Submitted via: ExactAudioCopy v1.0b1
#
DISCID=e60fe412
DTITLE=Various Artist - Bosie Blues Society - Bucket of Blues
DYEAR=1999
DGENRE=Blues
TTITLE0=Let's Jump - Fat John and the Three Slims
TTITLE1=Serve You - Red and Grey
TTITLE2=They Call It The Blues - Tom McMeekan
TTITLE3=You Got No Business - Hoochie Coochie Men
TTITLE4=Talk The Talk - John Cugno and The Delta 88 Revival
TTITLE5=Al My Friends are Going - Smokin' Todd and the Delta Rockets
TTITLE6=What It Is - Richard Soliz and The Blue Rayz
TTITLE7=Corner Club Funk - We B-3
TTITLE8=The L.A. Blues - Area 51
TTITLE9=Ashley's Blues - Neighbor Dave
TTITLE10=Cherry Pie - The Rock N' Soul Revue
TTITLE11=Pressure Me - Nighttrain Express
TTITLE12=Sound Advice - Beth Wilson
TTITLE13=Idaho Potholes - John Cugno and The Delta 88 Revival
TTITLE14=Climb The Walls - Ken and Carmel Harris
TTITLE15=Lord Love the Blues - Neighbor Dave
TTITLE16=Blues Hiway - Red and Grey
TTITLE17=You Can't Take It With You - Smokin' Todd and the Delta Rocke
TTITLE17=ts
EXTD=
EXTT0=
EXTT1=
EXTT2=
EXTT3=
EXTT4=
EXTT5=
EXTT6=
EXTT7=
EXTT8=
EXTT9=
EXTT10=
EXTT11=
EXTT12=
EXTT13=
EXTT14=
EXTT15=
EXTT16=
EXTT17=
PLAYORDER=
